<svg width="14" height="18" viewBox="0 0 14 18" fill="none" xmlns="http://www.w3.org/2000/svg">
<path d="M10.125 9C10.125 9.16576 10.0592 9.32473 9.94194 9.44194C9.82473 9.55915 9.66576 9.625 9.5 9.625H4.5C4.33424 9.625 4.17527 9.55915 4.05806 9.44194C3.94085 9.32473 3.875 9.16576 3.875 9C3.875 8.83424 3.94085 8.67527 4.05806 8.55806C4.17527 8.44085 4.33424 8.375 4.5 8.375H9.5C9.66576 8.375 9.82473 8.44085 9.94194 8.55806C10.0592 8.67527 10.125 8.83424 10.125 9ZM9.5 10.875H4.5C4.33424 10.875 4.17527 10.9408 4.05806 11.0581C3.94085 11.1753 3.875 11.3342 3.875 11.5C3.875 11.6658 3.94085 11.8247 4.05806 11.9419C4.17527 12.0592 4.33424 12.125 4.5 12.125H9.5C9.66576 12.125 9.82473 12.0592 9.94194 11.9419C10.0592 11.8247 10.125 11.6658 10.125 11.5C10.125 11.3342 10.0592 11.1753 9.94194 11.0581C9.82473 10.9408 9.66576 10.875 9.5 10.875ZM13.875 2.75V14.625C13.875 15.288 13.6116 15.9239 13.1428 16.3928C12.6739 16.8616 12.038 17.125 11.375 17.125H2.625C1.96196 17.125 1.32607 16.8616 0.857233 16.3928C0.388392 15.9239 0.125 15.288 0.125 14.625V2.75C0.125 2.41848 0.256696 2.10054 0.491116 1.86612C0.725537 1.6317 1.04348 1.5 1.375 1.5H2.625V0.875C2.625 0.70924 2.69085 0.550268 2.80806 0.433058C2.92527 0.315848 3.08424 0.25 3.25 0.25C3.41576 0.25 3.57473 0.315848 3.69194 0.433058C3.80915 0.550268 3.875 0.70924 3.875 0.875V1.5H6.375V0.875C6.375 0.70924 6.44085 0.550268 6.55806 0.433058C6.67527 0.315848 6.83424 0.25 7 0.25C7.16576 0.25 7.32473 0.315848 7.44194 0.433058C7.55915 0.550268 7.625 0.70924 7.625 0.875V1.5H10.125V0.875C10.125 0.70924 10.1908 0.550268 10.3081 0.433058C10.4253 0.315848 10.5842 0.25 10.75 0.25C10.9158 0.25 11.0747 0.315848 11.1919 0.433058C11.3092 0.550268 11.375 0.70924 11.375 0.875V1.5H12.625C12.9565 1.5 13.2745 1.6317 13.5089 1.86612C13.7433 2.10054 13.875 2.41848 13.875 2.75ZM12.625 2.75H11.375V3.375C11.375 3.54076 11.3092 3.69973 11.1919 3.81694C11.0747 3.93415 10.9158 4 10.75 4C10.5842 4 10.4253 3.93415 10.3081 3.81694C10.1908 3.69973 10.125 3.54076 10.125 3.375V2.75H7.625V3.375C7.625 3.54076 7.55915 3.69973 7.44194 3.81694C7.32473 3.93415 7.16576 4 7 4C6.83424 4 6.67527 3.93415 6.55806 3.81694C6.44085 3.69973 6.375 3.54076 6.375 3.375V2.75H3.875V3.375C3.875 3.54076 3.80915 3.69973 3.69194 3.81694C3.57473 3.93415 3.41576 4 3.25 4C3.08424 4 2.92527 3.93415 2.80806 3.81694C2.69085 3.69973 2.625 3.54076 2.625 3.375V2.75H1.375V14.625C1.375 14.9565 1.5067 15.2745 1.74112 15.5089C1.97554 15.7433 2.29348 15.875 2.625 15.875H11.375C11.7065 15.875 12.0245 15.7433 12.2589 15.5089C12.4933 15.2745 12.625 14.9565 12.625 14.625V2.75Z" fill="white"/>
</svg>
