<svg width="16" height="12" viewBox="0 0 16 12" fill="none" xmlns="http://www.w3.org/2000/svg">
  <path d="M14.6858 0.75C14.4698 0.75 14.2627 0.832406 14.11 0.979092L5.38384 9.36222L1.89 6.00533C1.7373 5.85864 1.53019 5.77624 1.31424 5.77624C1.09829 5.77624 0.891186 5.85864 0.738486 6.00533C0.585786 6.15201 0.5 6.35096 0.5 6.55841C0.5 6.76585 0.585786 6.9648 0.738486 7.11148L4.80808 11.0208C4.88365 11.0934 4.97338 11.1511 5.07215 11.1904C5.17096 11.2297 5.27687 11.25 5.38383 11.25C5.49079 11.25 5.59671 11.2297 5.69552 11.1904C5.79428 11.1511 5.88411 11.0933 5.95968 11.0207L15.2615 2.08525C15.4142 1.93856 15.5 1.73961 15.5 1.53217C15.5 1.32473 15.4142 1.12578 15.2615 0.979092C15.1088 0.832406 14.9017 0.75 14.6858 0.75Z" fill="#121212"/>
</svg>