<svg width="25" height="16" viewBox="0 0 25 16" fill="none" xmlns="http://www.w3.org/2000/svg">
<path d="M11.4208 10.8048C12.426 10.1356 13.1892 9.16073 13.5974 8.02426C14.0057 6.8878 14.0374 5.65012 13.6878 4.49425C13.3382 3.33838 12.626 2.32569 11.6563 1.60593C10.6867 0.886171 9.51121 0.497559 8.30364 0.497559C7.09606 0.497559 5.92055 0.886171 4.95092 1.60593C3.98129 2.32569 3.26904 3.33838 2.91947 4.49425C2.56991 5.65012 2.6016 6.8878 3.00985 8.02426C3.41811 9.16073 4.18126 10.1356 5.18645 10.8048C3.36816 11.475 1.8153 12.7151 0.759573 14.3402C0.704088 14.4226 0.665548 14.5153 0.646193 14.6128C0.626838 14.7103 0.627055 14.8106 0.64683 14.908C0.666606 15.0055 0.705546 15.098 0.761387 15.1802C0.817227 15.2624 0.888855 15.3327 0.972107 15.387C1.05536 15.4413 1.14857 15.4785 1.24633 15.4965C1.34409 15.5144 1.44444 15.5128 1.54156 15.4916C1.63867 15.4705 1.73061 15.4302 1.81203 15.3732C1.89345 15.3162 1.96272 15.2435 2.01582 15.1595C2.69681 14.1121 3.62866 13.2515 4.72673 12.6556C5.82481 12.0598 7.05433 11.7477 8.30364 11.7477C9.55294 11.7477 10.7825 12.0598 11.8805 12.6556C12.9786 13.2515 13.9105 14.1121 14.5914 15.1595C14.7015 15.323 14.8714 15.4367 15.0645 15.4759C15.2576 15.5151 15.4584 15.4767 15.6234 15.369C15.7885 15.2614 15.9045 15.0931 15.9465 14.9006C15.9885 14.708 15.953 14.5067 15.8477 14.3402C14.792 12.7151 13.2391 11.475 11.4208 10.8048ZM4.17864 6.12484C4.17864 5.30899 4.42056 4.51147 4.87382 3.83311C5.32708 3.15476 5.97132 2.62605 6.72507 2.31384C7.47881 2.00163 8.30821 1.91994 9.10838 2.0791C9.90856 2.23827 10.6436 2.63113 11.2205 3.20803C11.7973 3.78492 12.1902 4.51992 12.3494 5.32009C12.5085 6.12027 12.4268 6.94967 12.1146 7.70341C11.8024 8.45716 11.2737 9.10139 10.5954 9.55465C9.91701 10.0079 9.11948 10.2498 8.30364 10.2498C7.21 10.2486 6.16151 9.81361 5.38819 9.04029C4.61487 8.26697 4.17988 7.21848 4.17864 6.12484ZM23.8793 15.378C23.7127 15.4866 23.5097 15.5246 23.3151 15.4837C23.1205 15.4427 22.9501 15.3261 22.8414 15.1595C22.1613 14.1115 21.2296 13.2505 20.1313 12.6549C19.033 12.0593 17.803 11.7482 16.5536 11.7498C16.3547 11.7498 16.164 11.6708 16.0233 11.5302C15.8827 11.3895 15.8036 11.1988 15.8036 10.9998C15.8036 10.8009 15.8827 10.6102 16.0233 10.4695C16.164 10.3289 16.3547 10.2498 16.5536 10.2498C17.1611 10.2493 17.761 10.1145 18.3103 9.85526C18.8597 9.59599 19.345 9.21858 19.7316 8.75C20.1182 8.28143 20.3965 7.73325 20.5467 7.14463C20.6969 6.55602 20.7152 5.9415 20.6004 5.34498C20.4855 4.74846 20.2403 4.18468 19.8823 3.6939C19.5243 3.20312 19.0624 2.79747 18.5294 2.50593C17.9965 2.2144 17.4057 2.04416 16.7994 2.0074C16.193 1.97064 15.586 2.06826 15.0218 2.29328C14.9298 2.33305 14.8307 2.35398 14.7305 2.35482C14.6303 2.35567 14.5309 2.33642 14.4382 2.29821C14.3456 2.26 14.2615 2.2036 14.191 2.13236C14.1205 2.06111 14.065 1.97645 14.0278 1.88339C13.9906 1.79033 13.9724 1.69076 13.9743 1.59055C13.9762 1.49034 13.9982 1.39152 14.0389 1.29995C14.0797 1.20838 14.1384 1.1259 14.2115 1.0574C14.2847 0.988888 14.3708 0.93574 14.4649 0.901091C15.7563 0.386076 17.1926 0.367543 18.4968 0.849066C19.8011 1.33059 20.8808 2.27805 21.5276 3.50867C22.1745 4.73929 22.3427 6.16587 21.9999 7.5132C21.657 8.86053 20.8273 10.0332 19.6708 10.8048C21.4891 11.475 23.042 12.7151 24.0977 14.3402C24.2063 14.5068 24.2444 14.7097 24.2034 14.9043C24.1624 15.0989 24.0458 15.2693 23.8793 15.378Z" fill="white"/>
</svg>
