<svg width="15" height="22" viewBox="0 0 15 22" fill="none" xmlns="http://www.w3.org/2000/svg">
<path d="M9.96387 10.25H8.46387V4.25H9.21387C10.0095 4.25 10.7726 4.56607 11.3352 5.12868C11.8978 5.69129 12.2139 6.45435 12.2139 7.25C12.2139 7.44891 12.2929 7.63968 12.4335 7.78033C12.5742 7.92098 12.765 8 12.9639 8C13.1628 8 13.3535 7.92098 13.4942 7.78033C13.6349 7.63968 13.7139 7.44891 13.7139 7.25C13.7126 6.05691 13.2381 4.91303 12.3945 4.06939C11.5508 3.22575 10.407 2.75124 9.21387 2.75H8.46387V1.25C8.46387 1.05109 8.38485 0.860322 8.2442 0.71967C8.10355 0.579018 7.91278 0.5 7.71387 0.5C7.51496 0.5 7.32419 0.579018 7.18354 0.71967C7.04288 0.860322 6.96387 1.05109 6.96387 1.25V2.75H6.21387C5.02039 2.75 3.8758 3.22411 3.03189 4.06802C2.18797 4.91193 1.71387 6.05653 1.71387 7.25C1.71387 8.44347 2.18797 9.58807 3.03189 10.432C3.8758 11.2759 5.02039 11.75 6.21387 11.75H6.96387V17.75H5.46387C4.66822 17.75 3.90516 17.4339 3.34255 16.8713C2.77994 16.3087 2.46387 15.5456 2.46387 14.75C2.46387 14.5511 2.38485 14.3603 2.2442 14.2197C2.10354 14.079 1.91278 14 1.71387 14C1.51495 14 1.32419 14.079 1.18354 14.2197C1.04288 14.3603 0.963867 14.5511 0.963867 14.75C0.965108 15.9431 1.43961 17.087 2.28326 17.9306C3.1269 18.7743 4.27077 19.2488 5.46387 19.25H6.96387V20.75C6.96387 20.9489 7.04288 21.1397 7.18354 21.2803C7.32419 21.421 7.51496 21.5 7.71387 21.5C7.91278 21.5 8.10355 21.421 8.2442 21.2803C8.38485 21.1397 8.46387 20.9489 8.46387 20.75V19.25H9.96387C11.1573 19.25 12.3019 18.7759 13.1458 17.932C13.9898 17.0881 14.4639 15.9435 14.4639 14.75C14.4639 13.5565 13.9898 12.4119 13.1458 11.568C12.3019 10.7241 11.1573 10.25 9.96387 10.25ZM6.21387 10.25C5.41822 10.25 4.65516 9.93393 4.09255 9.37132C3.52994 8.80871 3.21387 8.04565 3.21387 7.25C3.21387 6.45435 3.52994 5.69129 4.09255 5.12868C4.65516 4.56607 5.41822 4.25 6.21387 4.25H6.96387V10.25H6.21387ZM9.96387 17.75H8.46387V11.75H9.96387C10.7595 11.75 11.5226 12.0661 12.0852 12.6287C12.6478 13.1913 12.9639 13.9544 12.9639 14.75C12.9639 15.5456 12.6478 16.3087 12.0852 16.8713C11.5226 17.4339 10.7595 17.75 9.96387 17.75Z" fill="white"/>
</svg>
