<svg width="17" height="22" viewBox="0 0 17 22" fill="none" xmlns="http://www.w3.org/2000/svg">
<path d="M8.57129 5C7.82961 5 7.10459 5.21993 6.4879 5.63199C5.87122 6.04404 5.39057 6.62971 5.10674 7.31494C4.82291 8.00016 4.74865 8.75416 4.89334 9.48159C5.03804 10.209 5.39519 10.8772 5.91964 11.4017C6.44409 11.9261 7.11227 12.2833 7.8397 12.4279C8.56713 12.5726 9.32113 12.4984 10.0064 12.2145C10.6916 11.9307 11.2772 11.4501 11.6893 10.8334C12.1014 10.2167 12.3213 9.49168 12.3213 8.75C12.3213 7.75544 11.9262 6.80161 11.2229 6.09835C10.5197 5.39509 9.56585 5 8.57129 5ZM8.57129 11C8.12628 11 7.69127 10.868 7.32126 10.6208C6.95125 10.3736 6.66286 10.0222 6.49256 9.61104C6.32226 9.1999 6.27771 8.74751 6.36452 8.31105C6.45134 7.87459 6.66563 7.47368 6.9803 7.15901C7.29497 6.84434 7.69588 6.63005 8.13234 6.54323C8.56879 6.45642 9.02119 6.50097 9.43233 6.67127C9.84346 6.84157 10.1949 7.12996 10.4421 7.49997C10.6893 7.86998 10.8213 8.30499 10.8213 8.75C10.8213 9.34674 10.5842 9.91903 10.1623 10.341C9.74032 10.7629 9.16803 11 8.57129 11ZM8.57129 0.5C6.38401 0.502481 4.28704 1.37247 2.7404 2.91911C1.19376 4.46575 0.32377 6.56273 0.321289 8.75C0.321289 11.6938 1.6816 14.8138 4.25879 17.7734C5.41681 19.1108 6.72015 20.3151 8.14473 21.3641C8.27083 21.4524 8.42107 21.4998 8.57504 21.4998C8.72901 21.4998 8.87925 21.4524 9.00535 21.3641C10.4273 20.3147 11.7281 19.1104 12.8838 17.7734C15.4572 14.8138 16.8213 11.6938 16.8213 8.75C16.8188 6.56273 15.9488 4.46575 14.4022 2.91911C12.8555 1.37247 10.7586 0.502481 8.57129 0.5ZM8.57129 19.8125C7.0216 18.5938 1.82129 14.1172 1.82129 8.75C1.82129 6.95979 2.53245 5.2429 3.79832 3.97703C5.06419 2.71116 6.78108 2 8.57129 2C10.3615 2 12.0784 2.71116 13.3443 3.97703C14.6101 5.2429 15.3213 6.95979 15.3213 8.75C15.3213 14.1153 10.121 18.5938 8.57129 19.8125Z" fill="white"/>
</svg>
