<svg width="16" height="12" viewBox="0 0 16 12" fill="none" xmlns="http://www.w3.org/2000/svg">
<path d="M4.25 1C4.25 0.83424 4.31585 0.675269 4.43306 0.558058C4.55027 0.440848 4.70924 0.375 4.875 0.375H14.875C15.0408 0.375 15.1997 0.440848 15.3169 0.558058C15.4342 0.675269 15.5 0.83424 15.5 1C15.5 1.16576 15.4342 1.32473 15.3169 1.44194C15.1997 1.55915 15.0408 1.625 14.875 1.625H4.875C4.70924 1.625 4.55027 1.55915 4.43306 1.44194C4.31585 1.32473 4.25 1.16576 4.25 1ZM14.875 5.375H4.875C4.70924 5.375 4.55027 5.44085 4.43306 5.55806C4.31585 5.67527 4.25 5.83424 4.25 6C4.25 6.16576 4.31585 6.32473 4.43306 6.44194C4.55027 6.55915 4.70924 6.625 4.875 6.625H14.875C15.0408 6.625 15.1997 6.55915 15.3169 6.44194C15.4342 6.32473 15.5 6.16576 15.5 6C15.5 5.83424 15.4342 5.67527 15.3169 5.55806C15.1997 5.44085 15.0408 5.375 14.875 5.375ZM14.875 10.375H4.875C4.70924 10.375 4.55027 10.4408 4.43306 10.5581C4.31585 10.6753 4.25 10.8342 4.25 11C4.25 11.1658 4.31585 11.3247 4.43306 11.4419C4.55027 11.5592 4.70924 11.625 4.875 11.625H14.875C15.0408 11.625 15.1997 11.5592 15.3169 11.4419C15.4342 11.3247 15.5 11.1658 15.5 11C15.5 10.8342 15.4342 10.6753 15.3169 10.5581C15.1997 10.4408 15.0408 10.375 14.875 10.375ZM1.4375 0.0625C1.25208 0.0625 1.07082 0.117483 0.916653 0.220497C0.762482 0.323511 0.642321 0.469929 0.571363 0.641234C0.500406 0.81254 0.481841 1.00104 0.518014 1.1829C0.554188 1.36475 0.643476 1.5318 0.774588 1.66291C0.9057 1.79402 1.07275 1.88331 1.2546 1.91949C1.43646 1.95566 1.62496 1.93709 1.79627 1.86614C1.96757 1.79518 2.11399 1.67502 2.217 1.52085C2.32002 1.36668 2.375 1.18542 2.375 1C2.375 0.75136 2.27623 0.512903 2.10041 0.337087C1.9246 0.161272 1.68614 0.0625 1.4375 0.0625ZM1.4375 5.0625C1.25208 5.0625 1.07082 5.11748 0.916653 5.2205C0.762482 5.32351 0.642321 5.46993 0.571363 5.64123C0.500406 5.81254 0.481841 6.00104 0.518014 6.1829C0.554188 6.36475 0.643476 6.5318 0.774588 6.66291C0.9057 6.79402 1.07275 6.88331 1.2546 6.91949C1.43646 6.95566 1.62496 6.93709 1.79627 6.86614C1.96757 6.79518 2.11399 6.67502 2.217 6.52085C2.32002 6.36668 2.375 6.18542 2.375 6C2.375 5.75136 2.27623 5.5129 2.10041 5.33709C1.9246 5.16127 1.68614 5.0625 1.4375 5.0625ZM1.4375 10.0625C1.25208 10.0625 1.07082 10.1175 0.916653 10.2205C0.762482 10.3235 0.642321 10.4699 0.571363 10.6412C0.500406 10.8125 0.481841 11.001 0.518014 11.1829C0.554188 11.3648 0.643476 11.5318 0.774588 11.6629C0.9057 11.794 1.07275 11.8833 1.2546 11.9195C1.43646 11.9557 1.62496 11.9371 1.79627 11.8661C1.96757 11.7952 2.11399 11.675 2.217 11.5208C2.32002 11.3667 2.375 11.1854 2.375 11C2.375 10.7514 2.27623 10.5129 2.10041 10.3371C1.9246 10.1613 1.68614 10.0625 1.4375 10.0625Z" fill="white"/>
</svg>
