<svg width="15" height="15" viewBox="0 0 15 15" fill="none" xmlns="http://www.w3.org/2000/svg">
<path d="M13.9827 4.15887L10.8412 1.01661C10.7367 0.912114 10.6127 0.829224 10.4762 0.772672C10.3397 0.716119 10.1933 0.687012 10.0456 0.687012C9.89783 0.687012 9.75152 0.716119 9.61501 0.772672C9.4785 0.829224 9.35447 0.912114 9.25 1.01661L0.579771 9.68754C0.474851 9.79163 0.391667 9.91554 0.335055 10.0521C0.278443 10.1886 0.249534 10.335 0.250006 10.4828V13.625C0.250006 13.9234 0.368532 14.2096 0.57951 14.4205C0.790489 14.6315 1.07664 14.75 1.37501 14.75H4.51727C4.66506 14.7505 4.81147 14.7216 4.94799 14.665C5.08451 14.6084 5.20842 14.5252 5.31251 14.4203L13.9827 5.75004C14.0872 5.64558 14.1701 5.52154 14.2267 5.38504C14.2832 5.24853 14.3123 5.10222 14.3123 4.95446C14.3123 4.8067 14.2832 4.66039 14.2267 4.52388C14.1701 4.38737 14.0872 4.26334 13.9827 4.15887ZM4.51727 13.625H1.37501V10.4828L7.56251 4.29528L10.7048 7.43754L4.51727 13.625ZM11.5 6.64161L8.35774 3.50004L10.0452 1.81254L13.1875 4.95411L11.5 6.64161Z" fill="#121212"/>
</svg>
