<svg width="19" height="15" viewBox="0 0 19 15" fill="none" xmlns="http://www.w3.org/2000/svg">
<path d="M10.2498 10.3189C11.2296 9.70871 11.984 8.79599 12.3988 7.71885C12.8136 6.64171 12.8664 5.45877 12.549 4.34899C12.2317 3.23921 11.5615 2.26298 10.6399 1.56799C9.71836 0.873002 8.5955 0.49707 7.44124 0.49707C6.28698 0.49707 5.16412 0.873002 4.24254 1.56799C3.32096 2.26298 2.65081 3.23921 2.33346 4.34899C2.01612 5.45877 2.06885 6.64171 2.48369 7.71885C2.89852 8.79599 3.65288 9.70871 4.63264 10.3189C3.01936 10.8471 1.5678 11.8338 0.400614 13.2229C0.345927 13.2854 0.304255 13.3582 0.278037 13.437C0.251818 13.5159 0.241578 13.5991 0.247915 13.682C0.254252 13.7648 0.27704 13.8455 0.314945 13.9195C0.352851 13.9934 0.405113 14.059 0.468677 14.1125C0.532242 14.166 0.605832 14.2063 0.685145 14.231C0.764459 14.2557 0.847904 14.2643 0.930602 14.2564C1.0133 14.2485 1.09359 14.2242 1.16678 14.1849C1.23997 14.1456 1.30459 14.0921 1.35686 14.0275C2.92561 12.1557 5.08655 11.1252 7.43733 11.1252C9.78811 11.1252 11.9491 12.1557 13.5209 14.0275C13.6276 14.1546 13.7804 14.234 13.9457 14.2483C14.111 14.2627 14.2752 14.2108 14.4022 14.1041C14.5292 13.9974 14.6086 13.8446 14.623 13.6793C14.6373 13.5141 14.5854 13.3499 14.4787 13.2229C13.3108 11.8338 11.8592 10.8471 10.2498 10.3189ZM3.37483 5.81269C3.37483 5.00921 3.61309 4.22377 4.05949 3.55569C4.50588 2.88762 5.14036 2.36691 5.88268 2.05943C6.62501 1.75195 7.44184 1.6715 8.22989 1.82825C9.01793 1.98501 9.7418 2.37192 10.31 2.94007C10.8781 3.50822 11.265 4.23209 11.4218 5.02014C11.5785 5.80819 11.4981 6.62502 11.1906 7.36735C10.8831 8.10967 10.3624 8.74415 9.69434 9.19054C9.02626 9.63693 8.24082 9.87519 7.43733 9.87519C6.36027 9.87395 5.32768 9.44554 4.56608 8.68395C3.80448 7.92235 3.37607 6.88976 3.37483 5.81269ZM18.0819 9.17754L17.7178 8.96738C17.7605 8.74126 17.7605 8.50913 17.7178 8.28301L18.0819 8.07285C18.2255 7.98997 18.3302 7.85344 18.3732 7.69331C18.4161 7.53317 18.3936 7.36253 18.3108 7.21894C18.2279 7.07536 18.0914 6.97057 17.9312 6.92764C17.7711 6.88471 17.6005 6.90716 17.4569 6.99004L17.092 7.20098C16.9174 7.05118 16.7167 6.9349 16.4998 6.85801V6.43769C16.4998 6.27193 16.434 6.11296 16.3168 5.99575C16.1996 5.87854 16.0406 5.81269 15.8748 5.81269C15.7091 5.81269 15.5501 5.87854 15.4329 5.99575C15.3157 6.11296 15.2498 6.27193 15.2498 6.43769V6.85801C15.033 6.9349 14.8322 7.05118 14.6576 7.20098L14.2928 6.99004C14.2217 6.949 14.1432 6.92237 14.0618 6.91166C13.9804 6.90096 13.8977 6.90639 13.8184 6.92764C13.7391 6.9489 13.6648 6.98556 13.5997 7.03555C13.5346 7.08553 13.4799 7.14785 13.4389 7.21894C13.3979 7.29004 13.3712 7.36853 13.3605 7.44992C13.3498 7.53131 13.3552 7.61401 13.3765 7.69331C13.3978 7.7726 13.4344 7.84693 13.4844 7.91205C13.5344 7.97717 13.5967 8.03181 13.6678 8.07285L14.0319 8.28301C13.9892 8.50913 13.9892 8.74126 14.0319 8.96738L13.6678 9.17754C13.5242 9.26042 13.4194 9.39694 13.3765 9.55708C13.3336 9.71722 13.356 9.88785 13.4389 10.0314C13.5218 10.175 13.6583 10.2798 13.8184 10.3227C13.9786 10.3657 14.1492 10.3432 14.2928 10.2604L14.6576 10.0494C14.8322 10.1992 15.033 10.3155 15.2498 10.3924V10.8127C15.2498 10.9785 15.3157 11.1374 15.4329 11.2546C15.5501 11.3718 15.7091 11.4377 15.8748 11.4377C16.0406 11.4377 16.1996 11.3718 16.3168 11.2546C16.434 11.1374 16.4998 10.9785 16.4998 10.8127V10.3924C16.7167 10.3155 16.9174 10.1992 17.092 10.0494L17.4569 10.2604C17.5518 10.3154 17.6596 10.3443 17.7694 10.3439C17.907 10.344 18.0408 10.2986 18.15 10.2149C18.2592 10.1311 18.3377 10.0136 18.3733 9.88069C18.4089 9.74775 18.3997 9.60677 18.347 9.47963C18.2943 9.35249 18.2011 9.2463 18.0819 9.17754ZM15.2498 8.62519C15.2498 8.50158 15.2865 8.38074 15.3552 8.27796C15.4238 8.17518 15.5215 8.09507 15.6357 8.04777C15.7499 8.00047 15.8755 7.98809 15.9968 8.0122C16.118 8.03632 16.2294 8.09584 16.3168 8.18325C16.4042 8.27066 16.4637 8.38202 16.4878 8.50326C16.5119 8.6245 16.4996 8.75017 16.4523 8.86437C16.405 8.97858 16.3248 9.07619 16.2221 9.14486C16.1193 9.21354 15.9984 9.25019 15.8748 9.25019C15.7091 9.25019 15.5501 9.18435 15.4329 9.06714C15.3157 8.94993 15.2498 8.79096 15.2498 8.62519Z" fill="white"/>
</svg>
