<svg width="21" height="18" viewBox="0 0 21 18" fill="none" xmlns="http://www.w3.org/2000/svg">
<path d="M0.535746 8.99993C0.537731 7.21033 1.24953 5.49459 2.51497 4.22915C3.78041 2.96371 5.49614 2.25191 7.28575 2.24993H17.4754L16.5051 1.28055C16.3644 1.13982 16.2853 0.948952 16.2853 0.749929C16.2853 0.550906 16.3644 0.360034 16.5051 0.219304C16.6459 0.0785732 16.8367 -0.000488277 17.0357 -0.000488281C17.2348 -0.000488286 17.4256 0.0785732 17.5664 0.219304L19.8164 2.4693C19.8861 2.53896 19.9414 2.62168 19.9792 2.71272C20.0169 2.80377 20.0363 2.90137 20.0363 2.99993C20.0363 3.09849 20.0169 3.19609 19.9792 3.28713C19.9414 3.37818 19.8861 3.4609 19.8164 3.53055L17.5664 5.78055C17.4256 5.92128 17.2348 6.00035 17.0357 6.00035C16.8367 6.00035 16.6459 5.92128 16.5051 5.78055C16.3644 5.63982 16.2853 5.44895 16.2853 5.24993C16.2853 5.05091 16.3644 4.86003 16.5051 4.7193L17.4754 3.74993H7.28575C5.89382 3.75142 4.55932 4.30502 3.57508 5.28926C2.59084 6.27351 2.03724 7.608 2.03575 8.99993C2.03575 9.19884 1.95673 9.38961 1.81608 9.53026C1.67542 9.67091 1.48466 9.74993 1.28575 9.74993C1.08683 9.74993 0.896068 9.67091 0.755416 9.53026C0.614764 9.38961 0.535746 9.19884 0.535746 8.99993ZM19.2857 8.24993C19.0868 8.24993 18.8961 8.32895 18.7554 8.4696C18.6148 8.61025 18.5357 8.80102 18.5357 8.99993C18.5343 10.3919 17.9807 11.7264 16.9964 12.7106C16.0122 13.6948 14.6777 14.2484 13.2857 14.2499H3.09606L4.06637 13.2806C4.13605 13.2109 4.19133 13.1281 4.22904 13.0371C4.26675 12.9461 4.28616 12.8485 4.28616 12.7499C4.28616 12.6514 4.26675 12.5538 4.22904 12.4628C4.19133 12.3717 4.13605 12.289 4.06637 12.2193C3.99669 12.1496 3.91396 12.0943 3.82292 12.0566C3.73187 12.0189 3.63429 11.9995 3.53575 11.9995C3.4372 11.9995 3.33962 12.0189 3.24857 12.0566C3.15753 12.0943 3.0748 12.1496 3.00512 12.2193L0.755121 14.4693C0.685389 14.539 0.63007 14.6217 0.592326 14.7127C0.554583 14.8038 0.535156 14.9014 0.535156 14.9999C0.535156 15.0985 0.554583 15.1961 0.592326 15.2871C0.63007 15.3782 0.685389 15.4609 0.755121 15.5306L3.00512 17.7806C3.0748 17.8502 3.15753 17.9055 3.24857 17.9432C3.33962 17.9809 3.4372 18.0003 3.53575 18.0003C3.63429 18.0003 3.73187 17.9809 3.82292 17.9432C3.91396 17.9055 3.99669 17.8502 4.06637 17.7806C4.13605 17.7109 4.19133 17.6281 4.22904 17.5371C4.26675 17.4461 4.28616 17.3485 4.28616 17.2499C4.28616 17.1514 4.26675 17.0538 4.22904 16.9628C4.19133 16.8717 4.13605 16.789 4.06637 16.7193L3.09606 15.7499H13.2857C15.0753 15.7479 16.7911 15.0361 18.0565 13.7707C19.322 12.5053 20.0338 10.7895 20.0357 8.99993C20.0357 8.80102 19.9567 8.61025 19.8161 8.4696C19.6754 8.32895 19.4847 8.24993 19.2857 8.24993Z" fill="white"/>
</svg>
