<svg width="19" height="16" viewBox="0 0 19 16" fill="none" xmlns="http://www.w3.org/2000/svg">
<path d="M7.5 6.125C7.5 5.95924 7.56585 5.80027 7.68306 5.68306C7.80027 5.56585 7.95924 5.5 8.125 5.5H13.125C13.2908 5.5 13.4497 5.56585 13.5669 5.68306C13.6842 5.80027 13.75 5.95924 13.75 6.125C13.75 6.29076 13.6842 6.44973 13.5669 6.56694C13.4497 6.68415 13.2908 6.75 13.125 6.75H8.125C7.95924 6.75 7.80027 6.68415 7.68306 6.56694C7.56585 6.44973 7.5 6.29076 7.5 6.125ZM8.125 9.25H13.125C13.2908 9.25 13.4497 9.18415 13.5669 9.06694C13.6842 8.94973 13.75 8.79076 13.75 8.625C13.75 8.45924 13.6842 8.30027 13.5669 8.18306C13.4497 8.06585 13.2908 8 13.125 8H8.125C7.95924 8 7.80027 8.06585 7.68306 8.18306C7.56585 8.30027 7.5 8.45924 7.5 8.625C7.5 8.79076 7.56585 8.94973 7.68306 9.06694C7.80027 9.18415 7.95924 9.25 8.125 9.25ZM18.125 13C18.125 13.663 17.8616 14.2989 17.3928 14.7678C16.9239 15.2366 16.288 15.5 15.625 15.5H6.875C6.21196 15.5 5.57607 15.2366 5.10723 14.7678C4.63839 14.2989 4.375 13.663 4.375 13V3C4.375 2.66848 4.2433 2.35054 4.00888 2.11612C3.77446 1.8817 3.45652 1.75 3.125 1.75C2.79348 1.75 2.47554 1.8817 2.24112 2.11612C2.0067 2.35054 1.875 2.66848 1.875 3C1.875 3.44844 2.25234 3.75156 2.25625 3.75469C2.35969 3.83429 2.43561 3.94428 2.47336 4.06922C2.51112 4.19416 2.50881 4.32779 2.46676 4.45135C2.42471 4.57491 2.34503 4.68221 2.2389 4.75819C2.13277 4.83417 2.00552 4.87502 1.875 4.875C1.73984 4.87523 1.60836 4.83104 1.50078 4.74922C1.41016 4.68281 0.625 4.06328 0.625 3C0.625 2.33696 0.888392 1.70107 1.35723 1.23223C1.82607 0.763392 2.46196 0.5 3.125 0.5H13.75C14.413 0.5 15.0489 0.763392 15.5178 1.23223C15.9866 1.70107 16.25 2.33696 16.25 3V11.125H16.875C17.0102 11.125 17.1418 11.1689 17.25 11.25C17.3438 11.3172 18.125 11.9367 18.125 13ZM7.52031 11.5531C7.56302 11.4271 7.64451 11.3178 7.75313 11.2409C7.86175 11.164 7.99192 11.1234 8.125 11.125H15V3C15 2.66848 14.8683 2.35054 14.6339 2.11612C14.3995 1.8817 14.0815 1.75 13.75 1.75H5.28828C5.50933 2.12946 5.62554 2.56085 5.625 3V13C5.625 13.3315 5.7567 13.6495 5.99112 13.8839C6.22554 14.1183 6.54348 14.25 6.875 14.25C7.20652 14.25 7.52446 14.1183 7.75888 13.8839C7.9933 13.6495 8.125 13.3315 8.125 13C8.125 12.5516 7.74766 12.2484 7.74375 12.2453C7.63724 12.1691 7.55803 12.0607 7.5178 11.9361C7.47757 11.8115 7.47845 11.6772 7.52031 11.5531ZM16.875 13C16.8672 12.7684 16.7778 12.5471 16.6227 12.375H9.27891C9.34172 12.5774 9.37359 12.7881 9.37344 13C9.37404 13.4389 9.2584 13.8702 9.03828 14.25H15.625C15.9565 14.25 16.2745 14.1183 16.5089 13.8839C16.7433 13.6495 16.875 13.3315 16.875 13Z" fill="white"/>
</svg>
