<svg width="18" height="18" viewBox="0 0 18 18" fill="none" xmlns="http://www.w3.org/2000/svg">
<path d="M9.00028 5.24979C8.2586 5.24979 7.53358 5.46973 6.91689 5.88178C6.30021 6.29384 5.81956 6.87951 5.53573 7.56473C5.2519 8.24995 5.17764 9.00395 5.32234 9.73138C5.46703 10.4588 5.82418 11.127 6.34863 11.6514C6.87308 12.1759 7.54126 12.533 8.26869 12.6777C8.99612 12.8224 9.75012 12.7482 10.4353 12.4643C11.1206 12.1805 11.7062 11.6999 12.1183 11.0832C12.5303 10.4665 12.7503 9.74147 12.7503 8.99979C12.7492 8.00555 12.3538 7.05232 11.6508 6.34928C10.9478 5.64625 9.99452 5.25083 9.00028 5.24979ZM9.00028 11.4998C8.50583 11.4998 8.02248 11.3532 7.61136 11.0785C7.20023 10.8038 6.8798 10.4133 6.69058 9.9565C6.50136 9.49969 6.45185 8.99702 6.54832 8.51207C6.64478 8.02711 6.88288 7.58166 7.23251 7.23203C7.58214 6.88239 8.0276 6.64429 8.51256 6.54783C8.99751 6.45137 9.50017 6.50087 9.95699 6.69009C10.4138 6.87931 10.8043 7.19974 11.079 7.61087C11.3537 8.02199 11.5003 8.50534 11.5003 8.99979C11.5003 9.66283 11.2369 10.2987 10.768 10.7676C10.2992 11.2364 9.66332 11.4998 9.00028 11.4998ZM15.8753 9.16854C15.8784 9.05604 15.8784 8.94354 15.8753 8.83104L17.0409 7.37479C17.102 7.29833 17.1443 7.20859 17.1644 7.11278C17.1845 7.01698 17.1818 6.9178 17.1565 6.82323C16.9654 6.10495 16.6796 5.4153 16.3065 4.77245C16.2577 4.68832 16.1899 4.61676 16.1085 4.56346C16.0271 4.51015 15.9344 4.47658 15.8378 4.46542L13.9847 4.25917C13.9076 4.17792 13.8294 4.09979 13.7503 4.02479L13.5315 2.16698C13.5203 2.07027 13.4866 1.97753 13.4331 1.89614C13.3797 1.81476 13.308 1.74699 13.2237 1.69823C12.5806 1.32584 11.891 1.04029 11.1729 0.84901C11.0783 0.823852 10.9791 0.821278 10.8833 0.841498C10.7875 0.861718 10.6978 0.904164 10.6214 0.965417L9.16903 2.12479C9.05653 2.12479 8.94403 2.12479 8.83153 2.12479L7.37528 0.96151C7.29882 0.900392 7.20907 0.858087 7.11327 0.838003C7.01747 0.81792 6.91829 0.82062 6.82372 0.845885C6.10555 1.03731 5.41595 1.32314 4.77294 1.69589C4.68881 1.74473 4.61725 1.81255 4.56394 1.89392C4.51064 1.9753 4.47707 2.068 4.46591 2.16464L4.25966 4.02089C4.17841 4.09849 4.10028 4.17661 4.02528 4.25526L2.16747 4.46854C2.07076 4.47979 1.97802 4.51348 1.89663 4.56692C1.81525 4.62037 1.74748 4.69208 1.69872 4.77635C1.32633 5.41945 1.04078 6.10904 0.849499 6.82714C0.82434 6.92176 0.821767 7.02098 0.841986 7.11679C0.862206 7.21259 0.904653 7.30231 0.965905 7.3787L2.12528 8.83104C2.12528 8.94354 2.12528 9.05604 2.12528 9.16854L0.961999 10.6248C0.90088 10.7013 0.858575 10.791 0.838492 10.8868C0.818408 10.9826 0.821108 11.0818 0.846373 11.1764C1.03746 11.8946 1.3233 12.5843 1.69637 13.2271C1.74522 13.3113 1.81303 13.3828 1.89441 13.4361C1.97579 13.4894 2.06849 13.523 2.16512 13.5342L4.01825 13.7404C4.09585 13.8217 4.17398 13.8998 4.25262 13.9748L4.46903 15.8326C4.48028 15.9293 4.51397 16.0221 4.56741 16.1034C4.62085 16.1848 4.69257 16.2526 4.77684 16.3014C5.41994 16.6737 6.10953 16.9593 6.82762 17.1506C6.92225 17.1757 7.02147 17.1783 7.11727 17.1581C7.21308 17.1379 7.30279 17.0954 7.37919 17.0342L8.83153 15.8748C8.94403 15.8779 9.05653 15.8779 9.16903 15.8748L10.6253 17.0404C10.7017 17.1015 10.7915 17.1438 10.8873 17.1639C10.9831 17.184 11.0823 17.1813 11.1768 17.156C11.8951 16.965 12.5848 16.6791 13.2276 16.306C13.3118 16.2572 13.3833 16.1894 13.4366 16.108C13.4899 16.0266 13.5235 15.9339 13.5347 15.8373L13.7409 13.9842C13.8222 13.9071 13.9003 13.829 13.9753 13.7498L15.8331 13.531C15.9298 13.5198 16.0225 13.4861 16.1039 13.4327C16.1853 13.3792 16.2531 13.3075 16.3018 13.2232C16.6742 12.5801 16.9598 11.8905 17.1511 11.1724C17.1762 11.0778 17.1788 10.9786 17.1586 10.8828C17.1384 10.787 17.0959 10.6973 17.0347 10.6209L15.8753 9.16854ZM14.6175 8.66073C14.6307 8.88658 14.6307 9.11301 14.6175 9.33885C14.6082 9.49348 14.6566 9.64605 14.7534 9.76698L15.862 11.1521C15.7348 11.5564 15.5719 11.9486 15.3753 12.324L13.6097 12.524C13.4559 12.5411 13.3139 12.6146 13.2112 12.7303C13.0608 12.8994 12.9007 13.0596 12.7315 13.2099C12.6158 13.3127 12.5423 13.4546 12.5253 13.6084L12.3292 15.3724C11.9538 15.5692 11.5616 15.7321 11.1573 15.8592L9.77137 14.7506C9.66047 14.662 9.52271 14.6137 9.38075 14.6139H9.34325C9.1174 14.6271 8.89097 14.6271 8.66512 14.6139C8.5105 14.6045 8.35793 14.653 8.237 14.7498L6.84794 15.8592C6.44367 15.732 6.0515 15.5691 5.67606 15.3724L5.47606 13.6092C5.45899 13.4554 5.3855 13.3134 5.26981 13.2107C5.10068 13.0603 4.94051 12.9002 4.79012 12.731C4.68742 12.6153 4.54545 12.5419 4.39169 12.5248L2.62762 12.3279C2.4309 11.9525 2.26801 11.5603 2.1409 11.156L3.2495 9.77011C3.3463 9.64917 3.39474 9.4966 3.38544 9.34198C3.37216 9.11613 3.37216 8.8897 3.38544 8.66385C3.39474 8.50923 3.3463 8.35666 3.2495 8.23573L2.1409 6.84745C2.26811 6.44318 2.43099 6.05101 2.62762 5.67557L4.39091 5.47557C4.54467 5.45851 4.68663 5.38502 4.78934 5.26932C4.93973 5.10019 5.0999 4.94002 5.26903 4.78964C5.38518 4.68686 5.45897 4.54457 5.47606 4.39042L5.67216 2.62714C6.04755 2.43041 6.43972 2.26753 6.84403 2.14042L8.22997 3.24901C8.3509 3.34581 8.50347 3.39426 8.65809 3.38495C8.88394 3.37167 9.11037 3.37167 9.33622 3.38495C9.49084 3.39426 9.64341 3.34581 9.76434 3.24901L11.1526 2.14042C11.5569 2.26762 11.9491 2.4305 12.3245 2.62714L12.5245 4.39042C12.5416 4.54418 12.6151 4.68615 12.7308 4.78885C12.8999 4.93924 13.0601 5.09941 13.2104 5.26854C13.3131 5.38423 13.4551 5.45772 13.6089 5.47479L15.3729 5.67089C15.5697 6.04628 15.7325 6.43845 15.8597 6.84276L14.7511 8.2287C14.6533 8.35065 14.6048 8.50479 14.6151 8.66073H14.6175Z" fill="white"/>
</svg>
