<svg width="22" height="16" viewBox="0 0 22 16" fill="none" xmlns="http://www.w3.org/2000/svg">
<path d="M20.2991 5.795C20.6379 5.72606 20.9425 5.54219 21.1613 5.27449C21.3802 5.00679 21.4998 4.6717 21.5 4.32594V2C21.5 1.60218 21.342 1.22064 21.0607 0.93934C20.7794 0.658035 20.3978 0.5 20 0.5H2C1.60218 0.5 1.22065 0.658035 0.939343 0.93934C0.658038 1.22064 0.500003 1.60218 0.500003 2V4.32594C0.500192 4.6717 0.61983 5.00679 0.838671 5.27449C1.05751 5.54219 1.36212 5.72606 1.70094 5.795C2.20757 5.90006 2.66251 6.17653 2.98912 6.57782C3.31573 6.97912 3.49406 7.48072 3.49406 7.99813C3.49406 8.51553 3.31573 9.01713 2.98912 9.41843C2.66251 9.81972 2.20757 10.0962 1.70094 10.2013C1.36148 10.2703 1.0564 10.4547 0.837483 10.7232C0.61857 10.9917 0.499327 11.3277 0.500003 11.6741V14C0.500003 14.3978 0.658038 14.7794 0.939343 15.0607C1.22065 15.342 1.60218 15.5 2 15.5H20C20.3978 15.5 20.7794 15.342 21.0607 15.0607C21.342 14.7794 21.5 14.3978 21.5 14V11.6741C21.4998 11.3283 21.3802 10.9932 21.1613 10.7255C20.9425 10.4578 20.6379 10.2739 20.2991 10.205C19.7924 10.0999 19.3375 9.82347 19.0109 9.42218C18.6843 9.02088 18.5059 8.51928 18.5059 8.00188C18.5059 7.48447 18.6843 6.98287 19.0109 6.58157C19.3375 6.18028 19.7924 5.90381 20.2991 5.79875V5.795ZM2 11.675C2.84722 11.5024 3.60876 11.0424 4.15573 10.3728C4.70269 9.70313 5.00146 8.86508 5.00146 8.00047C5.00146 7.13586 4.70269 6.2978 4.15573 5.62819C3.60876 4.95857 2.84722 4.49852 2 4.32594V2H7.25V14H2V11.675ZM20 11.675V14H8.75V2H20V4.325C19.1528 4.49759 18.3912 4.95763 17.8443 5.62725C17.2973 6.29687 16.9985 7.13492 16.9985 7.99953C16.9985 8.86414 17.2973 9.7022 17.8443 10.3718C18.3912 11.0414 19.1528 11.5015 20 11.6741V11.675Z" fill="white"/>
</svg>
