<svg width="20" height="20" viewBox="0 0 20 20" fill="none" xmlns="http://www.w3.org/2000/svg">
<path d="M19.5058 17.8751C18.078 15.4067 15.8777 13.6367 13.3099 12.7976C14.58 12.0415 15.5669 10.8893 16.1188 9.51804C16.6708 8.14678 16.7574 6.63224 16.3652 5.20701C15.9731 3.78178 15.124 2.52467 13.9483 1.62873C12.7726 0.732786 11.3353 0.247559 9.85707 0.247559C8.37888 0.247559 6.94156 0.732786 5.76584 1.62873C4.59012 2.52467 3.741 3.78178 3.34888 5.20701C2.95677 6.63224 3.04334 8.14678 3.5953 9.51804C4.14726 10.8893 5.1341 12.0415 6.40425 12.7976C3.83644 13.6357 1.63613 15.4057 0.208315 17.8751C0.155955 17.9605 0.121225 18.0555 0.106174 18.1545C0.0911226 18.2535 0.0960557 18.3545 0.120682 18.4516C0.145308 18.5487 0.189129 18.6399 0.249558 18.7197C0.309987 18.7996 0.385801 18.8666 0.472526 18.9167C0.559252 18.9668 0.655132 18.999 0.75451 19.0114C0.853888 19.0238 0.954751 19.0163 1.05115 18.9891C1.14754 18.9619 1.23752 18.9157 1.31577 18.8532C1.39402 18.7907 1.45896 18.7131 1.50675 18.6251C3.273 15.5726 6.39488 13.7501 9.85707 13.7501C13.3193 13.7501 16.4411 15.5726 18.2074 18.6251C18.2552 18.7131 18.3201 18.7907 18.3984 18.8532C18.4766 18.9157 18.5666 18.9619 18.663 18.9891C18.7594 19.0163 18.8602 19.0238 18.9596 19.0114C19.059 18.999 19.1549 18.9668 19.2416 18.9167C19.3283 18.8666 19.4041 18.7996 19.4646 18.7197C19.525 18.6399 19.5688 18.5487 19.5934 18.4516C19.6181 18.3545 19.623 18.2535 19.608 18.1545C19.5929 18.0555 19.5582 17.9605 19.5058 17.8751ZM4.60707 7.00011C4.60707 5.96176 4.91497 4.94672 5.49185 4.08337C6.06873 3.22001 6.88867 2.5471 7.84798 2.14974C8.80729 1.75238 9.86289 1.64841 10.8813 1.85099C11.8997 2.05356 12.8351 2.55357 13.5694 3.2878C14.3036 4.02202 14.8036 4.95749 15.0062 5.97589C15.2088 6.99429 15.1048 8.04989 14.7074 9.0092C14.3101 9.96851 13.6372 10.7884 12.7738 11.3653C11.9105 11.9422 10.8954 12.2501 9.85707 12.2501C8.46514 12.2486 7.13064 11.695 6.1464 10.7108C5.16216 9.72653 4.60855 8.39204 4.60707 7.00011Z" fill="white"/>
</svg>
