<svg width="29" height="29" viewBox="0 0 29 29" fill="none" xmlns="http://www.w3.org/2000/svg">
    <mask id="path-1-inside-1_2780_32367" fill="white">
        <path
            d="M23.7813 18.625H20.6875V10.375H23.7813C24.8011 10.375 25.798 10.0726 26.6459 9.50602C27.4939 8.93944 28.1547 8.13415 28.545 7.19196C28.9353 6.24978 29.0374 5.21303 28.8384 4.21282C28.6395 3.2126 28.1484 2.29385 27.4273 1.57273C26.7062 0.851619 25.7874 0.360533 24.7872 0.161578C23.787 -0.0373768 22.7502 0.0647341 21.808 0.454999C20.8659 0.845263 20.0606 1.50615 19.494 2.35409C18.9274 3.20203 18.625 4.19894 18.625 5.21875V8.3125H10.375V5.21875C10.375 4.19894 10.0726 3.20203 9.50602 2.35409C8.93944 1.50615 8.13415 0.845263 7.19196 0.454999C6.24978 0.0647341 5.21303 -0.0373768 4.21282 0.161578C3.2126 0.360533 2.29385 0.851619 1.57273 1.57273C0.851619 2.29385 0.360533 3.2126 0.161578 4.21282C-0.0373768 5.21303 0.0647341 6.24978 0.454999 7.19196C0.845263 8.13415 1.50615 8.93944 2.35409 9.50602C3.20203 10.0726 4.19894 10.375 5.21875 10.375H8.3125V18.625H5.21875C4.19894 18.625 3.20203 18.9274 2.35409 19.494C1.50615 20.0606 0.845263 20.8659 0.454999 21.808C0.0647341 22.7502 -0.0373768 23.787 0.161578 24.7872C0.360533 25.7874 0.851619 26.7062 1.57273 27.4273C2.29385 28.1484 3.2126 28.6395 4.21282 28.8384C5.21303 29.0374 6.24978 28.9353 7.19196 28.545C8.13415 28.1547 8.93944 27.4939 9.50602 26.6459C10.0726 25.798 10.375 24.8011 10.375 23.7813V20.6875H18.625V23.7813C18.625 24.8011 18.9274 25.798 19.494 26.6459C20.0606 27.4939 20.8659 28.1547 21.808 28.545C22.7502 28.9353 23.787 29.0374 24.7872 28.8384C25.7874 28.6395 26.7062 28.1484 27.4273 27.4273C28.1484 26.7062 28.6395 25.7874 28.8384 24.7872C29.0374 23.787 28.9353 22.7502 28.545 21.808C28.1547 20.8659 27.4939 20.0606 26.6459 19.494C25.798 18.9274 24.8011 18.625 23.7813 18.625ZM20.6875 5.21875C20.6875 4.60687 20.8689 4.00872 21.2089 3.49996C21.5488 2.99119 22.032 2.59466 22.5973 2.3605C23.1626 2.12634 23.7847 2.06508 24.3848 2.18445C24.9849 2.30382 25.5362 2.59847 25.9689 3.03114C26.4015 3.46381 26.6962 4.01506 26.8156 4.61519C26.9349 5.21532 26.8737 5.83737 26.6395 6.40268C26.4053 6.96799 26.0088 7.45117 25.5 7.79111C24.9913 8.13106 24.3931 8.3125 23.7813 8.3125H20.6875V5.21875ZM8.3125 23.7813C8.3125 24.3931 8.13106 24.9913 7.79111 25.5C7.45117 26.0088 6.96799 26.4053 6.40268 26.6395C5.83737 26.8737 5.21532 26.9349 4.61519 26.8156C4.01506 26.6962 3.46381 26.4015 3.03114 25.9689C2.59847 25.5362 2.30382 24.9849 2.18445 24.3848C2.06508 23.7847 2.12634 23.1626 2.3605 22.5973C2.59466 22.032 2.99119 21.5488 3.49996 21.2089C4.00872 20.8689 4.60687 20.6875 5.21875 20.6875H8.3125V23.7813ZM8.3125 8.3125H5.21875C4.60687 8.3125 4.00872 8.13106 3.49996 7.79111C2.99119 7.45117 2.59466 6.96799 2.3605 6.40268C2.12634 5.83737 2.06508 5.21532 2.18445 4.61519C2.30382 4.01506 2.59847 3.46381 3.03114 3.03114C3.46381 2.59847 4.01506 2.30382 4.61519 2.18445C5.21532 2.06508 5.83737 2.12634 6.40268 2.3605C6.96799 2.59466 7.45117 2.99119 7.79111 3.49996C8.13106 4.00872 8.3125 4.60687 8.3125 5.21875V8.3125ZM18.625 18.625H10.375V10.375H18.625V18.625ZM23.7813 26.875C22.9607 26.875 22.1738 26.5491 21.5936 25.9689C21.0135 25.3887 20.6875 24.6018 20.6875 23.7813V20.6875H23.7813C24.6018 20.6875 25.3887 21.0135 25.9689 21.5936C26.5491 22.1738 26.875 22.9607 26.875 23.7813C26.875 24.6018 26.5491 25.3887 25.9689 25.9689C25.3887 26.5491 24.6018 26.875 23.7813 26.875Z" />
    </mask>
    <path
        d="M23.7813 18.625H20.6875V10.375H23.7813C24.8011 10.375 25.798 10.0726 26.6459 9.50602C27.4939 8.93944 28.1547 8.13415 28.545 7.19196C28.9353 6.24978 29.0374 5.21303 28.8384 4.21282C28.6395 3.2126 28.1484 2.29385 27.4273 1.57273C26.7062 0.851619 25.7874 0.360533 24.7872 0.161578C23.787 -0.0373768 22.7502 0.0647341 21.808 0.454999C20.8659 0.845263 20.0606 1.50615 19.494 2.35409C18.9274 3.20203 18.625 4.19894 18.625 5.21875V8.3125H10.375V5.21875C10.375 4.19894 10.0726 3.20203 9.50602 2.35409C8.93944 1.50615 8.13415 0.845263 7.19196 0.454999C6.24978 0.0647341 5.21303 -0.0373768 4.21282 0.161578C3.2126 0.360533 2.29385 0.851619 1.57273 1.57273C0.851619 2.29385 0.360533 3.2126 0.161578 4.21282C-0.0373768 5.21303 0.0647341 6.24978 0.454999 7.19196C0.845263 8.13415 1.50615 8.93944 2.35409 9.50602C3.20203 10.0726 4.19894 10.375 5.21875 10.375H8.3125V18.625H5.21875C4.19894 18.625 3.20203 18.9274 2.35409 19.494C1.50615 20.0606 0.845263 20.8659 0.454999 21.808C0.0647341 22.7502 -0.0373768 23.787 0.161578 24.7872C0.360533 25.7874 0.851619 26.7062 1.57273 27.4273C2.29385 28.1484 3.2126 28.6395 4.21282 28.8384C5.21303 29.0374 6.24978 28.9353 7.19196 28.545C8.13415 28.1547 8.93944 27.4939 9.50602 26.6459C10.0726 25.798 10.375 24.8011 10.375 23.7813V20.6875H18.625V23.7813C18.625 24.8011 18.9274 25.798 19.494 26.6459C20.0606 27.4939 20.8659 28.1547 21.808 28.545C22.7502 28.9353 23.787 29.0374 24.7872 28.8384C25.7874 28.6395 26.7062 28.1484 27.4273 27.4273C28.1484 26.7062 28.6395 25.7874 28.8384 24.7872C29.0374 23.787 28.9353 22.7502 28.545 21.808C28.1547 20.8659 27.4939 20.0606 26.6459 19.494C25.798 18.9274 24.8011 18.625 23.7813 18.625ZM20.6875 5.21875C20.6875 4.60687 20.8689 4.00872 21.2089 3.49996C21.5488 2.99119 22.032 2.59466 22.5973 2.3605C23.1626 2.12634 23.7847 2.06508 24.3848 2.18445C24.9849 2.30382 25.5362 2.59847 25.9689 3.03114C26.4015 3.46381 26.6962 4.01506 26.8156 4.61519C26.9349 5.21532 26.8737 5.83737 26.6395 6.40268C26.4053 6.96799 26.0088 7.45117 25.5 7.79111C24.9913 8.13106 24.3931 8.3125 23.7813 8.3125H20.6875V5.21875ZM8.3125 23.7813C8.3125 24.3931 8.13106 24.9913 7.79111 25.5C7.45117 26.0088 6.96799 26.4053 6.40268 26.6395C5.83737 26.8737 5.21532 26.9349 4.61519 26.8156C4.01506 26.6962 3.46381 26.4015 3.03114 25.9689C2.59847 25.5362 2.30382 24.9849 2.18445 24.3848C2.06508 23.7847 2.12634 23.1626 2.3605 22.5973C2.59466 22.032 2.99119 21.5488 3.49996 21.2089C4.00872 20.8689 4.60687 20.6875 5.21875 20.6875H8.3125V23.7813ZM8.3125 8.3125H5.21875C4.60687 8.3125 4.00872 8.13106 3.49996 7.79111C2.99119 7.45117 2.59466 6.96799 2.3605 6.40268C2.12634 5.83737 2.06508 5.21532 2.18445 4.61519C2.30382 4.01506 2.59847 3.46381 3.03114 3.03114C3.46381 2.59847 4.01506 2.30382 4.61519 2.18445C5.21532 2.06508 5.83737 2.12634 6.40268 2.3605C6.96799 2.59466 7.45117 2.99119 7.79111 3.49996C8.13106 4.00872 8.3125 4.60687 8.3125 5.21875V8.3125ZM18.625 18.625H10.375V10.375H18.625V18.625ZM23.7813 26.875C22.9607 26.875 22.1738 26.5491 21.5936 25.9689C21.0135 25.3887 20.6875 24.6018 20.6875 23.7813V20.6875H23.7813C24.6018 20.6875 25.3887 21.0135 25.9689 21.5936C26.5491 22.1738 26.875 22.9607 26.875 23.7813C26.875 24.6018 26.5491 25.3887 25.9689 25.9689C25.3887 26.5491 24.6018 26.875 23.7813 26.875Z"
        fill="#121212" />
    <path
        d="M20.6875 18.625H3.6875V35.625H20.6875V18.625ZM20.6875 10.375V-6.625H3.6875V10.375H20.6875ZM23.7813 10.375V-6.625V10.375ZM18.625 5.21875H1.625H18.625ZM18.625 8.3125V25.3125H35.625V8.3125H18.625ZM10.375 8.3125H-6.625V25.3125H10.375V8.3125ZM10.375 5.21875H-6.625H10.375ZM5.21875 10.375V27.375V10.375ZM8.3125 10.375H25.3125V-6.625H8.3125V10.375ZM8.3125 18.625V35.625H25.3125V18.625H8.3125ZM5.21875 18.625V35.625V18.625ZM10.375 20.6875V3.6875H-6.625V20.6875H10.375ZM18.625 20.6875H35.625V3.6875H18.625V20.6875ZM18.625 23.7813H1.625H18.625ZM20.6875 5.21875H37.6875H20.6875ZM23.7813 8.3125V25.3125V8.3125ZM20.6875 8.3125H3.6875V25.3125H20.6875V8.3125ZM8.3125 20.6875H25.3125V3.6875H8.3125V20.6875ZM8.3125 8.3125V25.3125H25.3125V8.3125H8.3125ZM5.21875 8.3125V25.3125V8.3125ZM8.3125 5.21875H25.3125H8.3125ZM18.625 18.625V35.625H35.625V18.625H18.625ZM10.375 18.625H-6.625V35.625H10.375V18.625ZM10.375 10.375V-6.625H-6.625V10.375H10.375ZM18.625 10.375H35.625V-6.625H18.625V10.375ZM23.7813 26.875V43.875H23.7813L23.7813 26.875ZM20.6875 20.6875V3.6875H3.6875V20.6875H20.6875ZM23.7813 20.6875L23.7813 3.6875H23.7813V20.6875ZM23.7813 1.625H20.6875V35.625H23.7813V1.625ZM37.6875 18.625V10.375H3.6875V18.625H37.6875ZM20.6875 27.375H23.7813V-6.625H20.6875V27.375ZM23.7813 27.375C28.1634 27.375 32.447 26.0756 36.0906 23.641L17.2012 -4.62897C19.1489 -5.93037 21.4388 -6.625 23.7813 -6.625V27.375ZM36.0906 23.641C39.7342 21.2064 42.574 17.7461 44.251 13.6976L12.8391 0.686346C13.7355 -1.47783 15.2535 -3.32756 17.2012 -4.62897L36.0906 23.641ZM44.251 13.6976C45.9279 9.64906 46.3667 5.19418 45.5118 0.896283L12.1651 7.52935C11.7081 5.23189 11.9426 2.8505 12.8391 0.686346L44.251 13.6976ZM45.5118 0.896283C44.6569 -3.40162 42.5467 -7.34948 39.4481 -10.4481L15.4065 13.5935C13.7501 11.9372 12.6221 9.82683 12.1651 7.52935L45.5118 0.896283ZM39.4481 -10.4481C36.3495 -13.5467 32.4016 -15.6569 28.1037 -16.5118L21.4707 16.8349C19.1732 16.3779 17.0628 15.2499 15.4065 13.5935L39.4481 -10.4481ZM28.1037 -16.5118C23.8058 -17.3667 19.351 -16.9279 15.3024 -15.251L28.3137 16.1609C26.1495 17.0574 23.7681 17.2919 21.4707 16.8349L28.1037 -16.5118ZM15.3024 -15.251C11.2539 -13.574 7.79357 -10.7342 5.359 -7.0906L33.629 11.7988C32.3276 13.7465 30.4778 15.2645 28.3137 16.1609L15.3024 -15.251ZM5.359 -7.0906C2.92444 -3.44702 1.625 0.836668 1.625 5.21875H35.625C35.625 7.56122 34.9304 9.85109 33.629 11.7988L5.359 -7.0906ZM1.625 5.21875V8.3125H35.625V5.21875H1.625ZM18.625 -8.6875H10.375V25.3125H18.625V-8.6875ZM27.375 8.3125V5.21875H-6.625V8.3125H27.375ZM27.375 5.21875C27.375 0.836657 26.0756 -3.44703 23.641 -7.0906L-4.62897 11.7988C-5.93037 9.8511 -6.625 7.56123 -6.625 5.21875H27.375ZM23.641 -7.0906C21.2064 -10.7342 17.7461 -13.574 13.6976 -15.251L0.686346 16.1609C-1.47782 15.2645 -3.32756 13.7465 -4.62897 11.7988L23.641 -7.0906ZM13.6976 -15.251C9.64906 -16.9279 5.19418 -17.3667 0.896283 -16.5118L7.52935 16.8349C5.23189 17.2919 2.85051 17.0574 0.686346 16.1609L13.6976 -15.251ZM0.896283 -16.5118C-3.40161 -15.6569 -7.34947 -13.5467 -10.4481 -10.4481L13.5935 13.5935C11.9372 15.2499 9.82682 16.3779 7.52935 16.8349L0.896283 -16.5118ZM-10.4481 -10.4481C-13.5467 -7.34947 -15.6569 -3.40161 -16.5118 0.896283L16.8349 7.52935C16.3779 9.82682 15.2499 11.9372 13.5935 13.5935L-10.4481 -10.4481ZM-16.5118 0.896283C-17.3667 5.19418 -16.9279 9.64906 -15.251 13.6976L16.1609 0.686346C17.0574 2.85051 17.2919 5.23189 16.8349 7.52935L-16.5118 0.896283ZM-15.251 13.6976C-13.574 17.7461 -10.7342 21.2064 -7.0906 23.641L11.7988 -4.62897C13.7465 -3.32756 15.2645 -1.47782 16.1609 0.686346L-15.251 13.6976ZM-7.0906 23.641C-3.44703 26.0756 0.836657 27.375 5.21875 27.375V-6.625C7.56123 -6.625 9.8511 -5.93037 11.7988 -4.62897L-7.0906 23.641ZM5.21875 27.375H8.3125V-6.625H5.21875V27.375ZM-8.6875 10.375V18.625H25.3125V10.375H-8.6875ZM8.3125 1.625H5.21875V35.625H8.3125V1.625ZM5.21875 1.625C0.836668 1.625 -3.44702 2.92444 -7.0906 5.359L11.7988 33.629C9.85109 34.9304 7.56122 35.625 5.21875 35.625V1.625ZM-7.0906 5.359C-10.7342 7.79357 -13.574 11.2539 -15.251 15.3024L16.1609 28.3137C15.2645 30.4778 13.7465 32.3276 11.7988 33.629L-7.0906 5.359ZM-15.251 15.3024C-16.9279 19.351 -17.3667 23.8058 -16.5118 28.1037L16.8349 21.4707C17.2919 23.7681 17.0574 26.1495 16.1609 28.3137L-15.251 15.3024ZM-16.5118 28.1037C-15.6569 32.4016 -13.5467 36.3495 -10.4481 39.4481L13.5935 15.4065C15.2499 17.0628 16.3779 19.1732 16.8349 21.4707L-16.5118 28.1037ZM-10.4481 39.4481C-7.34948 42.5467 -3.40162 44.6569 0.896283 45.5118L7.52935 12.1651C9.82683 12.6221 11.9372 13.7501 13.5935 15.4065L-10.4481 39.4481ZM0.896283 45.5118C5.19418 46.3667 9.64906 45.9279 13.6976 44.251L0.686346 12.8391C2.8505 11.9426 5.23189 11.7081 7.52935 12.1651L0.896283 45.5118ZM13.6976 44.251C17.7461 42.574 21.2064 39.7342 23.641 36.0906L-4.62897 17.2012C-3.32756 15.2535 -1.47783 13.7355 0.686346 12.8391L13.6976 44.251ZM23.641 36.0906C26.0756 32.447 27.375 28.1634 27.375 23.7813H-6.625C-6.625 21.4388 -5.93037 19.1489 -4.62897 17.2012L23.641 36.0906ZM27.375 23.7813V20.6875H-6.625V23.7813H27.375ZM10.375 37.6875H18.625V3.6875H10.375V37.6875ZM1.625 20.6875V23.7813H35.625V20.6875H1.625ZM1.625 23.7813C1.625 28.1633 2.92444 32.447 5.359 36.0906L33.629 17.2012C34.9304 19.1489 35.625 21.4388 35.625 23.7813H1.625ZM5.359 36.0906C7.79356 39.7342 11.2539 42.574 15.3024 44.251L28.3137 12.8391C30.4778 13.7355 32.3276 15.2535 33.629 17.2012L5.359 36.0906ZM15.3024 44.251C19.3509 45.9279 23.8058 46.3667 28.1037 45.5118L21.4707 12.1651C23.7681 11.7081 26.1495 11.9426 28.3137 12.8391L15.3024 44.251ZM28.1037 45.5118C32.4016 44.6569 36.3495 42.5467 39.4481 39.4481L15.4065 15.4065C17.0628 13.7501 19.1732 12.6221 21.4707 12.1651L28.1037 45.5118ZM39.4481 39.4481C42.5467 36.3495 44.6569 32.4016 45.5118 28.1037L12.1651 21.4707C12.6221 19.1732 13.7501 17.0628 15.4065 15.4065L39.4481 39.4481ZM45.5118 28.1037C46.3667 23.8058 45.9279 19.3509 44.251 15.3024L12.8391 28.3137C11.9426 26.1495 11.7081 23.7681 12.1651 21.4707L45.5118 28.1037ZM44.251 15.3024C42.574 11.2539 39.7342 7.79356 36.0906 5.359L17.2012 33.629C15.2535 32.3276 13.7355 30.4778 12.8391 28.3137L44.251 15.3024ZM36.0906 5.359C32.447 2.92444 28.1633 1.625 23.7813 1.625V35.625C21.4388 35.625 19.1489 34.9304 17.2012 33.629L36.0906 5.359ZM37.6875 5.21875C37.6875 7.96915 36.8719 10.6578 35.3439 12.9447L7.07391 -5.94474C4.86598 -2.64034 3.6875 1.24459 3.6875 5.21875H37.6875ZM35.3439 12.9447C33.8158 15.2315 31.644 17.0139 29.1029 18.0665L16.0917 -13.3455C12.4201 -11.8246 9.28184 -9.24914 7.07391 -5.94474L35.3439 12.9447ZM29.1029 18.0665C26.5619 19.119 23.7658 19.3944 21.0683 18.8578L27.7014 -14.4889C23.8035 -15.2642 19.7634 -14.8663 16.0917 -13.3455L29.1029 18.0665ZM21.0683 18.8578C18.3707 18.3212 15.8929 16.9968 13.9481 15.052L37.9897 -8.98967C35.1795 -11.7998 31.5992 -13.7136 27.7014 -14.4889L21.0683 18.8578ZM13.9481 15.052C12.0032 13.1071 10.6788 10.6293 10.1422 7.93173L43.4889 1.29866C42.7136 -2.59915 40.7998 -6.17951 37.9897 -8.98967L13.9481 15.052ZM10.1422 7.93173C9.60564 5.23418 9.88103 2.4381 10.9336 -0.102938L42.3455 12.9083C43.8663 9.23664 44.2642 5.19646 43.4889 1.29866L10.1422 7.93173ZM10.9336 -0.102938C11.9861 -2.64401 13.7685 -4.81586 16.0554 -6.34387L34.9447 21.9261C38.2491 19.7182 40.8246 16.58 42.3455 12.9083L10.9336 -0.102938ZM16.0554 -6.34387C18.3422 -7.87191 21.0309 -8.6875 23.7813 -8.6875V25.3125C27.7554 25.3125 31.6403 24.134 34.9447 21.9261L16.0554 -6.34387ZM23.7813 -8.6875H20.6875V25.3125H23.7813V-8.6875ZM37.6875 8.3125V5.21875H3.6875V8.3125H37.6875ZM-8.6875 23.7813C-8.6875 21.0309 -7.87191 18.3422 -6.34387 16.0554L21.9261 34.9447C24.134 31.6403 25.3125 27.7554 25.3125 23.7813H-8.6875ZM-6.34387 16.0554C-4.81586 13.7685 -2.64401 11.9861 -0.102938 10.9336L12.9083 42.3455C16.58 40.8246 19.7182 38.2491 21.9261 34.9447L-6.34387 16.0554ZM-0.102938 10.9336C2.4381 9.88103 5.23418 9.60564 7.93173 10.1422L1.29866 43.4889C5.19646 44.2642 9.23664 43.8663 12.9083 42.3455L-0.102938 10.9336ZM7.93173 10.1422C10.6293 10.6788 13.1071 12.0032 15.052 13.9481L-8.98967 37.9897C-6.17951 40.7998 -2.59915 42.7136 1.29866 43.4889L7.93173 10.1422ZM15.052 13.9481C16.9968 15.8929 18.3212 18.3707 18.8578 21.0683L-14.4889 27.7014C-13.7136 31.5992 -11.7998 35.1795 -8.98967 37.9897L15.052 13.9481ZM18.8578 21.0683C19.3944 23.7658 19.119 26.5619 18.0665 29.1029L-13.3455 16.0917C-14.8663 19.7634 -15.2642 23.8035 -14.4889 27.7014L18.8578 21.0683ZM18.0665 29.1029C17.0139 31.644 15.2315 33.8158 12.9447 35.3439L-5.94474 7.07391C-9.24914 9.28184 -11.8246 12.4201 -13.3455 16.0917L18.0665 29.1029ZM12.9447 35.3439C10.6578 36.8719 7.96915 37.6875 5.21875 37.6875V3.6875C1.24459 3.6875 -2.64034 4.86598 -5.94474 7.07391L12.9447 35.3439ZM5.21875 37.6875H8.3125V3.6875H5.21875V37.6875ZM-8.6875 20.6875V23.7813H25.3125V20.6875H-8.6875ZM8.3125 -8.6875H5.21875V25.3125H8.3125V-8.6875ZM5.21875 -8.6875C7.96914 -8.6875 10.6578 -7.87192 12.9447 -6.34387L-5.94474 21.9261C-2.64033 24.134 1.2446 25.3125 5.21875 25.3125V-8.6875ZM12.9447 -6.34387C15.2315 -4.81583 17.0139 -2.64397 18.0665 -0.102938L-13.3455 12.9083C-11.8246 16.5799 -9.24914 19.7182 -5.94474 21.9261L12.9447 -6.34387ZM18.0665 -0.102938C19.119 2.4381 19.3944 5.23418 18.8578 7.93173L-14.4889 1.29866C-15.2642 5.19646 -14.8663 9.23664 -13.3455 12.9083L18.0665 -0.102938ZM18.8578 7.93173C18.3212 10.6293 16.9968 13.1071 15.052 15.052L-8.98967 -8.98967C-11.7998 -6.17951 -13.7136 -2.59915 -14.4889 1.29866L18.8578 7.93173ZM15.052 15.052C13.1071 16.9968 10.6293 18.3212 7.93173 18.8578L1.29866 -14.4889C-2.59915 -13.7136 -6.17951 -11.7998 -8.98967 -8.98967L15.052 15.052ZM7.93173 18.8578C5.23418 19.3944 2.4381 19.119 -0.102938 18.0665L12.9083 -13.3455C9.23664 -14.8663 5.19646 -15.2642 1.29866 -14.4889L7.93173 18.8578ZM-0.102938 18.0665C-2.64397 17.0139 -4.81583 15.2315 -6.34387 12.9447L21.9261 -5.94474C19.7182 -9.24914 16.5799 -11.8246 12.9083 -13.3455L-0.102938 18.0665ZM-6.34387 12.9447C-7.87192 10.6578 -8.6875 7.96914 -8.6875 5.21875H25.3125C25.3125 1.2446 24.134 -2.64033 21.9261 -5.94474L-6.34387 12.9447ZM-8.6875 5.21875V8.3125H25.3125V5.21875H-8.6875ZM18.625 1.625H10.375V35.625H18.625V1.625ZM27.375 18.625V10.375H-6.625V18.625H27.375ZM10.375 27.375H18.625V-6.625H10.375V27.375ZM1.625 10.375V18.625H35.625V10.375H1.625ZM23.7813 9.875C27.4694 9.875 31.0065 11.3401 33.6145 13.9481L9.57283 37.9897C13.3411 41.758 18.4521 43.875 23.7813 43.875V9.875ZM33.6145 13.9481C36.2224 16.556 37.6875 20.0931 37.6875 23.7813H3.6875C3.6875 29.1104 5.8045 34.2214 9.57283 37.9897L33.6145 13.9481ZM37.6875 23.7813V20.6875H3.6875V23.7813H37.6875ZM20.6875 37.6875H23.7813V3.6875H20.6875V37.6875ZM23.7813 37.6875C20.0931 37.6875 16.556 36.2224 13.9481 33.6145L37.9897 9.57283C34.2214 5.8045 29.1104 3.6875 23.7813 3.6875L23.7813 37.6875ZM13.9481 33.6145C11.3401 31.0065 9.875 27.4694 9.875 23.7813H43.875C43.875 18.4521 41.758 13.3411 37.9897 9.57283L13.9481 33.6145ZM9.875 23.7813C9.875 20.0931 11.3401 16.556 13.9481 13.9481L37.9897 37.9897C41.758 34.2214 43.875 29.1104 43.875 23.7813H9.875ZM13.9481 13.9481C16.556 11.3401 20.0931 9.875 23.7813 9.875L23.7813 43.875C29.1104 43.875 34.2214 41.758 37.9897 37.9897L13.9481 13.9481Z"
        fill="#121212" mask="url(#path-1-inside-1_2780_32367)" />
</svg>